<svg width="379" height="55" viewBox="0 0 379 55" fill="none" xmlns="http://www.w3.org/2000/svg">
<path fill-rule="evenodd" clip-rule="evenodd" d="M58.9022 30.6081C47.6227 36.4839 32.6438 49.4067 16.2504 52.0626C9.32742 53.1842 7.61103 51.9736 9.24796 44.4957C10.8849 37.0177 13.9769 31.6763 14.6135 30.43C15.2501 29.1838 15.8866 27.2252 17.0689 26.1569C18.2511 25.0887 20.7976 24.2875 22.0708 22.9522C23.3439 21.6169 24.0942 20.9268 24.0033 20.5707C23.9124 20.2146 21.9569 20.0367 22.2754 19.5025C22.5938 18.9684 23.5031 17.0988 23.8669 16.7873C24.2307 16.4757 24.7307 15.274 23.9578 14.8733C23.1848 14.4727 22.5028 14.6062 21.8662 16.4757C21.2296 18.3452 20.2293 19.1909 18.1831 17.8111C16.1369 16.4311 16.4096 15.7635 17.5919 14.2946C18.7741 12.8257 19.0924 12.3807 18.1376 11.7575C17.1827 11.1344 16.3186 12.6477 15.8639 13.805C15.4093 14.9623 14.9546 15.8524 14.4089 15.63C13.8632 15.4075 13.8634 14.339 13.2722 14.6062C12.681 14.8733 11.5443 17.8555 11.6806 19.4134C11.817 20.9714 11.7262 22.5739 11.226 24.1317C9.40701 29.7969 1.73224 47.0042 6.47415 52.3741C12.5397 59.2432 30.2448 50.8562 36.6214 47.4332C44.4294 43.2421 52.5931 36.7839 58.9022 30.6081Z" fill="#BE210B"/>
<path fill-rule="evenodd" clip-rule="evenodd" d="M19.2341 2.61914C29.4417 8.85327 37.2505 8.26202 50.6627 17.5882C56.3877 21.5691 56.5272 23.8053 49.8363 27.7662C43.1454 31.7272 37.0462 33.1863 35.6814 33.5873C34.3166 33.9882 32.4214 34.8776 30.8146 34.7676C29.2078 34.6576 26.8632 33.3924 24.9951 33.4008C23.1269 33.4092 22.0982 33.3478 21.8955 33.6567C21.6927 33.9656 22.9027 35.481 22.2864 35.6204C21.6701 35.7597 19.6541 36.3936 19.1724 36.348C18.6907 36.3024 17.4528 36.7701 17.6851 37.5956C17.9174 38.4211 18.485 38.8156 20.3138 37.9873C22.1427 37.159 23.459 37.2919 23.8364 39.6961C24.2137 42.1003 23.5294 42.3638 21.6243 42.5285C19.7191 42.6932 19.1693 42.7716 19.3609 43.8792C19.5524 44.9869 21.2722 44.565 22.4459 44.0954C23.6196 43.6259 24.5944 43.3396 24.8034 43.8809C25.0124 44.4223 24.2168 45.1548 24.8215 45.3929C25.4263 45.631 28.4267 44.3962 29.493 43.2308C30.5593 42.0654 31.8148 41.0315 33.3178 40.3196C38.784 37.7314 57.4103 30.7685 58.2423 23.7175C59.561 12.5414 28.5002 4.0141 19.2341 2.61914Z" fill="#BE210B"/>
<path fill-rule="evenodd" clip-rule="evenodd" d="M3.17204 46.7268C4.88103 35.0687 1.7236 25.2863 5.03005 9.51046C6.44134 2.77666 8.47534 1.74947 14.8772 6.14444C21.2791 10.5394 25.1037 15.4137 26.029 16.4744C26.9544 17.5351 28.5503 18.8738 29.0958 20.3574C29.6412 21.841 29.4045 24.4515 30.1661 26.1213C30.9277 27.7912 31.2852 28.7374 31.6558 28.7943C32.0264 28.8513 32.9547 27.1562 33.3336 27.652C33.7125 28.1477 35.1184 29.6978 35.2701 30.1476C35.4218 30.5974 36.3584 31.5175 37.0363 30.9764C37.7142 30.4353 37.8539 29.7677 36.3418 28.4638C34.8298 27.1599 34.423 25.9273 36.518 24.6193C38.613 23.3114 39.1354 23.818 40.0579 25.458C40.9805 27.0979 41.2756 27.5588 42.2337 26.9403C43.1917 26.3219 42.1036 24.9517 41.1911 24.0899C40.2787 23.228 39.6178 22.4704 40.0395 22.0648C40.4612 21.6592 41.4669 22.0763 41.4455 21.4386C41.424 20.8009 39.0593 18.6115 37.5398 18.1266C36.0203 17.6418 34.5473 16.9344 33.2755 15.8753C28.6509 12.0235 15.8628 -2.03181 7.70136 0.248657C-4.35656 3.61786 0.737553 37.8644 3.17204 46.7268Z" fill="#BE210B"/>
<path d="M92.1226 38H77.0083C76.6216 38 76.2026 37.957 75.7515 37.8711C75.311 37.7744 74.8706 37.6294 74.4302 37.436C74.0005 37.2427 73.5869 36.9956 73.1895 36.6948C72.792 36.3833 72.4375 36.0127 72.126 35.583C71.8252 35.1426 71.5835 34.6377 71.4009 34.0684C71.2183 33.4883 71.127 32.8384 71.127 32.1187V20.7749C71.127 20.3882 71.1699 19.9746 71.2559 19.5342C71.3525 19.083 71.4976 18.6426 71.6909 18.2129C71.8843 17.7725 72.1367 17.3535 72.4482 16.9561C72.7598 16.5586 73.1304 16.2095 73.5601 15.9087C74.0005 15.5972 74.5054 15.3501 75.0747 15.1675C75.644 14.9849 76.2886 14.8936 77.0083 14.8936H92.1226V19.083H77.0083C76.4604 19.083 76.0415 19.228 75.7515 19.5181C75.4614 19.8081 75.3164 20.2378 75.3164 20.8071V32.1187C75.3164 32.6558 75.4614 33.0747 75.7515 33.3755C76.0522 33.6655 76.4712 33.8105 77.0083 33.8105H92.1226V38ZM100.308 24.3359H115.02V14.8936H119.209V38H115.02V28.5576H100.308V38H96.1187V14.8936H100.308V24.3359ZM146.795 38H142.605V32.3281H127.878V38H123.688V26.4468C123.688 24.7603 123.979 23.208 124.559 21.79C125.139 20.3721 125.944 19.1528 126.976 18.1323C128.007 17.1118 129.226 16.3169 130.633 15.7476C132.041 15.1782 133.577 14.8936 135.242 14.8936H144.684C144.974 14.8936 145.248 14.9473 145.506 15.0547C145.764 15.1621 145.989 15.3125 146.183 15.5059C146.376 15.6992 146.526 15.9248 146.634 16.1826C146.741 16.4404 146.795 16.7144 146.795 17.0044V38ZM127.878 28.1387H142.605V19.083H135.242C135.113 19.083 134.839 19.1045 134.42 19.1475C134.012 19.1797 133.534 19.271 132.986 19.4214C132.449 19.5718 131.879 19.8027 131.278 20.1143C130.676 20.4258 130.123 20.8555 129.618 21.4033C129.113 21.9512 128.694 22.6387 128.361 23.4658C128.039 24.2822 127.878 25.2759 127.878 26.4468V28.1387ZM174.768 22.6602C174.768 23.6162 174.649 24.4702 174.413 25.2222C174.177 25.9741 173.854 26.6401 173.446 27.2202C173.049 27.7896 172.587 28.2783 172.061 28.6865C171.534 29.0947 170.981 29.4331 170.401 29.7017C169.832 29.9595 169.251 30.1475 168.661 30.2656C168.081 30.3838 167.533 30.4429 167.017 30.4429L175.767 38H169.289L160.556 30.4429H157.542V26.2534H167.017C167.543 26.2104 168.021 26.103 168.451 25.9312C168.892 25.7485 169.268 25.5068 169.579 25.2061C169.901 24.9053 170.148 24.5454 170.32 24.1265C170.492 23.6968 170.578 23.208 170.578 22.6602V20.0176C170.578 19.7812 170.546 19.604 170.481 19.4858C170.428 19.3569 170.353 19.2656 170.256 19.2119C170.17 19.1475 170.073 19.1099 169.966 19.0991C169.869 19.0884 169.778 19.083 169.692 19.083H155.867V38H151.677V17.0044C151.677 16.7144 151.731 16.4404 151.838 16.1826C151.946 15.9248 152.091 15.6992 152.273 15.5059C152.467 15.3125 152.692 15.1621 152.95 15.0547C153.208 14.9473 153.487 14.8936 153.788 14.8936H169.692C170.626 14.8936 171.416 15.0654 172.061 15.4092C172.705 15.7422 173.226 16.1665 173.624 16.6821C174.032 17.187 174.322 17.7349 174.494 18.3257C174.676 18.9165 174.768 19.4697 174.768 19.9854V22.6602ZM201.773 35.8892C201.773 36.1899 201.72 36.4692 201.612 36.7271C201.505 36.9849 201.354 37.2104 201.161 37.4038C200.979 37.5864 200.758 37.7314 200.5 37.8389C200.243 37.9463 199.963 38 199.663 38H184.548C184.162 38 183.743 37.957 183.292 37.8711C182.851 37.7744 182.411 37.6294 181.97 37.436C181.541 37.2427 181.127 36.9956 180.729 36.6948C180.332 36.3833 179.978 36.0127 179.666 35.583C179.365 35.1426 179.124 34.6377 178.941 34.0684C178.758 33.4883 178.667 32.8384 178.667 32.1187V20.7749C178.667 20.3882 178.71 19.9746 178.796 19.5342C178.893 19.083 179.038 18.6426 179.231 18.2129C179.424 17.7725 179.677 17.3535 179.988 16.9561C180.3 16.5586 180.67 16.2095 181.1 15.9087C181.541 15.5972 182.045 15.3501 182.615 15.1675C183.184 14.9849 183.829 14.8936 184.548 14.8936H201.58V19.083H184.548C184 19.083 183.582 19.228 183.292 19.5181C183.001 19.8081 182.856 20.2378 182.856 20.8071V32.1187C182.856 32.6558 183.001 33.0747 183.292 33.3755C183.592 33.6655 184.011 33.8105 184.548 33.8105H197.584V28.5576H186.434V24.3359H199.663C199.963 24.3359 200.243 24.395 200.5 24.5132C200.758 24.6206 200.979 24.771 201.161 24.9644C201.354 25.1577 201.505 25.3833 201.612 25.6411C201.72 25.8882 201.773 26.1567 201.773 26.4468V35.8892ZM225.138 28.5576H211.909V24.3359H225.138V28.5576ZM227.023 38H211.909C211.329 38 210.695 37.8979 210.007 37.6938C209.32 37.4897 208.681 37.1567 208.09 36.6948C207.51 36.2222 207.021 35.6152 206.624 34.874C206.237 34.1221 206.043 33.2036 206.043 32.1187V17.0044C206.043 16.7144 206.097 16.4404 206.205 16.1826C206.312 15.9248 206.457 15.6992 206.64 15.5059C206.833 15.3125 207.059 15.1621 207.316 15.0547C207.574 14.9473 207.854 14.8936 208.154 14.8936H227.023V19.083H210.233V32.1187C210.233 32.6665 210.378 33.0854 210.668 33.3755C210.958 33.6655 211.382 33.8105 211.941 33.8105H227.023V38Z" fill="#BE210B"/>
<path d="M245.102 28.332H239.43V34.0039H235.676V28.332H229.988V24.5615H235.676V18.8896H239.43V24.5615H245.102V28.332ZM269.562 38H254.448C254.061 38 253.642 37.957 253.191 37.8711C252.75 37.7744 252.31 37.6294 251.87 37.436C251.44 37.2427 251.026 36.9956 250.629 36.6948C250.231 36.3833 249.877 36.0127 249.565 35.583C249.265 35.1426 249.023 34.6377 248.84 34.0684C248.658 33.4883 248.566 32.8384 248.566 32.1187V20.7749C248.566 20.3882 248.609 19.9746 248.695 19.5342C248.792 19.083 248.937 18.6426 249.13 18.2129C249.324 17.7725 249.576 17.3535 249.888 16.9561C250.199 16.5586 250.57 16.2095 251 15.9087C251.44 15.5972 251.945 15.3501 252.514 15.1675C253.083 14.9849 253.728 14.8936 254.448 14.8936H269.562V19.083H254.448C253.9 19.083 253.481 19.228 253.191 19.5181C252.901 19.8081 252.756 20.2378 252.756 20.8071V32.1187C252.756 32.6558 252.901 33.0747 253.191 33.3755C253.492 33.6655 253.911 33.8105 254.448 33.8105H269.562V38ZM294.747 38H275.637C275.336 38 275.057 37.9463 274.799 37.8389C274.541 37.7314 274.315 37.5864 274.122 37.4038C273.939 37.2104 273.794 36.9849 273.687 36.7271C273.58 36.4692 273.526 36.1899 273.526 35.8892V14.8936H277.715V33.8105H294.747V38ZM321.721 28.6543C321.721 30.0615 321.479 31.356 320.996 32.5376C320.512 33.7192 319.841 34.7397 318.981 35.5991C318.122 36.4585 317.102 37.1299 315.92 37.6133C314.749 38.0859 313.471 38.3223 312.085 38.3223H306.413C305.027 38.3223 303.744 38.0859 302.562 37.6133C301.38 37.1299 300.36 36.4585 299.5 35.5991C298.641 34.7397 297.964 33.7192 297.47 32.5376C296.987 31.356 296.745 30.0615 296.745 28.6543V24.2393C296.745 22.8428 296.987 21.5537 297.47 20.3721C297.964 19.1797 298.641 18.1592 299.5 17.3105C300.36 16.4512 301.38 15.7798 302.562 15.2964C303.744 14.813 305.027 14.5713 306.413 14.5713H312.085C313.471 14.5713 314.749 14.813 315.92 15.2964C317.102 15.7798 318.122 16.4512 318.981 17.3105C319.841 18.1592 320.512 19.1797 320.996 20.3721C321.479 21.5537 321.721 22.8428 321.721 24.2393V28.6543ZM317.531 24.2393C317.531 23.4121 317.397 22.6655 317.128 21.9995C316.871 21.3228 316.5 20.748 316.017 20.2754C315.544 19.792 314.969 19.4214 314.292 19.1636C313.626 18.895 312.891 18.7607 312.085 18.7607H306.413C305.597 18.7607 304.85 18.895 304.173 19.1636C303.507 19.4214 302.933 19.792 302.449 20.2754C301.966 20.748 301.59 21.3228 301.321 21.9995C301.063 22.6655 300.935 23.4121 300.935 24.2393V28.6543C300.935 29.4814 301.063 30.2334 301.321 30.9102C301.59 31.5762 301.966 32.1509 302.449 32.6343C302.933 33.1069 303.507 33.4775 304.173 33.7461C304.85 34.0039 305.597 34.1328 306.413 34.1328H312.053C312.869 34.1328 313.61 34.0039 314.276 33.7461C314.953 33.4775 315.533 33.1069 316.017 32.6343C316.5 32.1509 316.871 31.5762 317.128 30.9102C317.397 30.2334 317.531 29.4814 317.531 28.6543V24.2393ZM348.501 35.8892C348.501 36.1899 348.447 36.4692 348.34 36.7271C348.232 36.9849 348.082 37.2104 347.889 37.4038C347.695 37.5864 347.47 37.7314 347.212 37.8389C346.954 37.9463 346.68 38 346.39 38H336.948C336.056 38 335.154 37.9033 334.241 37.71C333.328 37.5166 332.441 37.2212 331.582 36.8237C330.733 36.4155 329.933 35.8999 329.181 35.2769C328.429 34.6538 327.769 33.918 327.199 33.0693C326.641 32.21 326.2 31.2324 325.878 30.1367C325.556 29.0303 325.395 27.8003 325.395 26.4468V14.8936H329.584V26.4468C329.584 27.6284 329.745 28.6274 330.067 29.4438C330.4 30.2603 330.819 30.9424 331.324 31.4902C331.829 32.0381 332.382 32.4678 332.984 32.7793C333.585 33.0908 334.155 33.3218 334.692 33.4722C335.24 33.6226 335.718 33.7192 336.126 33.7622C336.545 33.7944 336.819 33.8105 336.948 33.8105H344.312V14.8936H348.501V35.8892ZM376.441 28.332C376.441 29.7393 376.194 31.0337 375.7 32.2153C375.217 33.397 374.545 34.4175 373.686 35.2769C372.827 36.1255 371.806 36.7915 370.625 37.2749C369.443 37.7583 368.159 38 366.773 38H355.462C355.161 38 354.882 37.9463 354.624 37.8389C354.366 37.7314 354.141 37.5864 353.947 37.4038C353.765 37.2104 353.62 36.9849 353.512 36.7271C353.405 36.4692 353.351 36.1899 353.351 35.8892V17.0044C353.351 16.7144 353.405 16.4404 353.512 16.1826C353.62 15.9248 353.765 15.6992 353.947 15.5059C354.141 15.3125 354.366 15.1621 354.624 15.0547C354.882 14.9473 355.161 14.8936 355.462 14.8936H366.773C368.159 14.8936 369.443 15.1353 370.625 15.6187C371.806 16.1021 372.827 16.7734 373.686 17.6328C374.545 18.4814 375.217 19.502 375.7 20.6943C376.194 21.876 376.441 23.165 376.441 24.5615V28.332ZM372.252 24.5615C372.252 23.7451 372.118 22.9985 371.849 22.3218C371.591 21.645 371.221 21.0703 370.737 20.5977C370.254 20.1143 369.674 19.7437 368.997 19.4858C368.331 19.2173 367.59 19.083 366.773 19.083H357.541V33.8105H366.773C367.59 33.8105 368.331 33.6816 368.997 33.4238C369.674 33.1553 370.254 32.7847 370.737 32.312C371.221 31.8286 371.591 31.2539 371.849 30.5879C372.118 29.9111 372.252 29.1592 372.252 28.332V24.5615Z" fill="#000080"/>
</svg>
